<?xml version="1.0" encoding="utf-8"?>
<!-- Generator: Adobe Illustrator 22.0.1, SVG Export Plug-In . SVG Version: 6.00 Build 0)  -->
<svg version="1.1"
	 id="svg30" xmlns:cc="http://creativecommons.org/ns#" xmlns:dc="http://purl.org/dc/elements/1.1/" xmlns:rdf="http://www.w3.org/1999/02/22-rdf-syntax-ns#" xmlns:svg="http://www.w3.org/2000/svg"
	 xmlns="http://www.w3.org/2000/svg" xmlns:xlink="http://www.w3.org/1999/xlink" x="0px" y="0px" viewBox="0 0 412 132"
	 style="enable-background:new 0 0 412 132;" xml:space="preserve">
<style type="text/css">
	.st0{display:none;}
	.st1{display:inline;}
	.st2{fill:#3C3C3B;}
	.st3{fill:#EF806E;}
	.st4{fill:none;}
	.st5{fill:#117DAF;}
	.st6{fill:#373535;}
	.st7{fill:#383636;}
	.st8{fill:#3A3737;}
</style>
<title  id="title6">tiledesk-logo</title>
<g id="Livello_2" class="st0">
	<g id="Livello_1-2" class="st1">
		<path id="path8" class="st2" d="M88.1,58.8h11V41.7h7v17.1H117v6.5h-10.9v37.6h-7V65.3h-11L88.1,58.8z"/>
		<path id="path10" class="st2" d="M135,46.8c0,2.5-2,4.4-4.5,4.4c-2.5,0-4.4-2-4.4-4.5c0-2.5,2-4.4,4.5-4.4c1.2,0,2.3,0.5,3.1,1.3
			C134.6,44.4,135,45.6,135,46.8z M127.1,102.9V58.8h7v44.1H127.1z"/>
		<path id="path12" class="st2" d="M149.5,102.9V27.8h7v75.2H149.5z"/>
		<path id="path14" class="st2" d="M214.7,83.6h-38.8c0.6,3.7,2.6,7,5.5,9.3c4.9,4.1,11.8,4.9,17.5,2c2.3-1.2,4.3-2.8,5.8-4.9h8
			c-1.8,4.1-4.7,7.6-8.5,10c-3.4,2.3-7.4,3.6-11.5,3.7c-3.4,0.1-6.8-0.5-10-1.8c-2.7-1.2-5.2-2.8-7.3-4.9
			c-4.4-4.2-6.9-10.1-6.8-16.2c0-12.7,10.3-23,23.1-23.1c6-0.1,11.8,2.3,16.1,6.5c4.5,4,7,9.7,7,15.7L214.7,83.6z M201.6,68.3
			c-2.8-2.4-6.3-3.7-10-3.6c-5.7,0-10.2,2.6-13.5,7.8c-1,1.6-1.7,3.3-2.1,5.2h31.3C206.5,73.9,204.5,70.6,201.6,68.3z"/>
		<path id="path16" class="st2" d="M261.3,102.9v-7.5c-0.4,0.5-0.8,1-1.2,1.5c-7.4,8.5-20.3,9.4-28.8,2c-0.7-0.6-1.4-1.3-2-2
			c-8.1-9.2-8.1-22.9,0-32.1c7.4-8.5,20.3-9.4,28.8-2c0.7,0.6,1.4,1.3,2,2c0.4,0.5,0.9,1,1.2,1.5V27.8h7v75.2H261.3z M256.9,69.7
			c-5.7-6.1-15.3-6.4-21.4-0.7c-0.3,0.2-0.5,0.5-0.7,0.7c-6,6.3-6,16.2,0,22.5c5.7,6.1,15.3,6.4,21.4,0.7c0.3-0.2,0.5-0.5,0.7-0.7
			C262.8,85.8,262.8,76,256.9,69.7z"/>
		<path id="path18" class="st2" d="M326.5,83.6h-38.8c0.6,3.7,2.6,7,5.5,9.3c4.9,4.1,11.8,4.9,17.5,2c2.3-1.2,4.3-2.8,5.8-4.9h8
			c-1.8,4.1-4.7,7.6-8.5,10c-3.4,2.3-7.4,3.6-11.5,3.7c-3.4,0.1-6.8-0.5-10-1.8c-2.7-1.2-5.2-2.8-7.3-4.9
			c-4.4-4.2-6.9-10.1-6.8-16.2c0-12.7,10.3-23,23.1-23.1c6-0.1,11.8,2.3,16.1,6.5c4.5,4,7,9.7,7,15.7L326.5,83.6z M313.4,68.3
			c-2.8-2.4-6.3-3.7-10-3.6c-5.7,0-10.2,2.6-13.5,7.8c-1,1.6-1.7,3.3-2.1,5.2H319C318.3,73.9,316.3,70.6,313.4,68.3z"/>
		<path id="path20" class="st2" d="M351.2,98.4c6.4,0,9.6-2.4,9.6-7.2c0-2.8-2.3-4.9-6.9-6.4c-1.9-0.7-4-1.3-6.3-1.8
			c-2.2-0.5-4.3-1.2-6.3-2.2c-2-0.9-3.8-2.2-5.1-4c-1.2-1.7-1.7-3.7-1.7-5.7c0-4.4,1.5-7.7,4.6-10c3.2-2.3,7.1-3.5,11-3.4
			c3.7-0.1,7.4,0.8,10.7,2.6c2.8,1.7,4.7,4.8,5.6,9.3H359c-0.7-2.5-1.9-4.1-3.4-4.9c-1.7-0.8-3.7-1.2-5.6-1.2
			c-2-0.1-3.9,0.4-5.6,1.4c-1.6,0.9-2.5,2.6-2.4,4.4c-0.1,1.7,0.6,3.3,2,4.4c1.5,1,3.1,1.8,4.9,2.3c1.9,0.6,4,1.2,6.3,1.7
			c2.2,0.5,4.3,1.2,6.4,2.2c4.5,2.2,6.8,5.6,6.8,10.4c0,4.7-1.7,8.3-5.1,10.5c-1.7,1.1-3.7,2-5.7,2.6c-2.2,0.6-4.4,0.9-6.7,0.8
			c-10.2,0-16.1-4.5-17.6-13.6h7.4c0.7,2.9,2,4.9,3.8,6C346.5,97.9,348.8,98.5,351.2,98.4z"/>
		<path id="path22" class="st2" d="M378.3,102.9V27.8h7v50.8l16.1-19.8h9.3l-18.1,21.5l19.4,22.8h-9.3l-17.4-21.2v21.2L378.3,102.9z
			"/>
		<polygon id="polygon24" class="st3" points="38.2,27.8 0,27.8 0,104.2 76.5,104.2 76.5,66 38.2,66 		"/>
		<rect id="rect26" y="0" class="st4" width="412" height="132"/>
	</g>
</g>
<g id="WCiLFH.tif">
	<g>
		<g>
			<path class="st5" d="M171.2,105.3c-1.7-0.4-3.4-0.9-5.1-1.3c-15.9-4-28.2-18.8-29.6-35c-0.9-11.3,2.1-21.4,9.5-30
				c7.7-9,17.6-13.8,29.6-14.1c12-0.3,22.2,3.9,30.4,12.6c6.5,6.8,10.1,15,10.8,24.5c0.8,10.7-2.1,20.2-8.9,28.6
				c-6.6,8.1-15.1,12.9-25.4,14.5c-0.3,0-0.5,0.2-0.8,0.3C178.2,105.3,174.7,105.3,171.2,105.3z M176.7,96.9c0.6,0,1,0.1,1.3,0
				c2.8-0.4,5.4-1.4,7.7-3c7-4.9,11.1-11.9,13.6-19.9c1.9-6.1,2.1-12.2-0.7-18.1c-4.4-9.4-11.9-14.4-22.5-14.4
				c-14.5,0-25.8,13.4-23.4,27.7c1.9,11.4,10.8,19.4,22.6,20.3c1.1,0.1,1.4,0.5,1.3,1.5C176.7,92.9,176.7,94.8,176.7,96.9z"/>
			<path class="st6" d="M2,65.4c0.3-1.1,0.6-2.2,0.9-3.3c2.5-8.7,10.5-14.5,19.3-13.9c9.6,0.6,16.8,7.1,18.1,16.4
				c0.2,1.6,0.3,3.3,0.4,5.1c-11.7,0-23.2,0-34.7,0C5.7,75.5,9.4,81.4,15,84c5.6,2.7,15,2.8,20.9-3.9c0.7,0.8,1.4,1.6,2.2,2.5
				c-2.4,3-5.4,4.8-9,5.8C19.7,91.2,9.6,87.7,5,79.7c-1.2-2.1-1.8-4.7-2.6-7c-0.1-0.3-0.2-0.5-0.3-0.8C2,69.8,2,67.6,2,65.4z
				 M36.7,66.6c0-8.6-7.2-15.2-16.3-14.8c-9.4,0.3-14.4,8.5-14.3,14.8C16.3,66.6,26.5,66.6,36.7,66.6z"/>
			<path class="st7" d="M302.6,88.9c-1.4,0-2.6,0-3.9,0c0-13.4,0-26.8,0-40.2c1.2,0,2.4,0,3.7,0c0,2.5,0,5.1,0,7.7
				c3.7-5.8,9.1-8.2,15.7-8.1c6.7,0.1,11.9,2.8,14.5,9.5c4.5-8.6,13.6-10.8,21.4-8.9c5.8,1.4,9.8,6,10.6,12.1
				c0.2,1.4,0.3,2.9,0.3,4.3c0,7.8,0,15.7,0,23.6c-1.3,0-2.5,0-3.9,0c0-0.6,0-1.1,0-1.7c0-7.6,0-15.3-0.1-22.9
				c0-1.4-0.3-2.8-0.6-4.1c-1.3-5-5.3-8.2-10.6-8.4c-9.7-0.4-15.9,5.4-16,15.2c-0.1,6.8,0,13.5,0,20.3c0,0.5,0,1,0,1.6
				c-1.3,0-2.5,0-4,0c0-0.5,0-1.1,0-1.6c0-7.6,0-15.3-0.1-22.9c0-1.4-0.3-2.8-0.6-4.1c-1.3-5.1-5.3-8.2-10.5-8.4
				c-9.7-0.4-16,5.4-16.1,15.2c-0.1,6.7,0,13.4,0,20.1C302.6,87.6,302.6,88.2,302.6,88.9z"/>
			<path class="st7" d="M91.7,80.1c0,8.2,0,16,0,23.8c-1.3,0-2.5,0-3.8,0c0-18.4,0-36.8,0-55.3c1.2,0,2.4,0,3.7,0c0,2.9,0,5.7,0,9
				c0.4-0.5,0.5-0.7,0.6-0.9c4.6-7,11.3-9.5,19.4-8.3c8,1.3,13.3,6.1,15.6,13.8c1.5,5,1.3,10-0.7,14.8c-2.9,7.2-8.5,11.2-16.1,12
				c-7.6,0.8-13.9-1.8-18.2-8.4C92.2,80.7,92.1,80.5,91.7,80.1z M91.7,68.7c0,11.6,9.3,19.1,20.3,16.6c6.6-1.5,11.3-7,12-14.7
				c1.2-12.9-9.3-21.3-21-18.1C96.2,54.4,91.7,60.9,91.7,68.7z"/>
			<path class="st6" d="M281.1,66.2c-0.1-1.9,0-3.9-0.3-5.7c-0.9-5.3-4.4-8.4-9.8-8.7c-6.2-0.3-9.4,0.7-15.8,4.9
				c-0.6-0.9-1.2-1.8-1.9-2.7c3-2.8,6.5-4.3,10.4-5.2c4.1-0.9,8.3-1,12.4,0.3c5.5,1.7,8.8,6.1,8.9,12.5c0.2,9,0.1,18,0.1,27.1
				c-1.2,0-2.4,0-3.8,0c0-2.1,0-4.1,0-6.4c-0.4,0.3-0.6,0.4-0.7,0.6c-2.8,3.9-6.8,5.7-11.4,6.1c-3.3,0.3-6.6,0.1-9.7-1.2
				c-5.1-2.1-7.6-6.1-7.1-11.9c0.4-4.4,3.8-8.2,8.8-9.1c2.6-0.5,5.3-0.6,8-0.7c3.9-0.1,7.7,0,11.6,0
				C280.7,66.4,280.7,66.3,281.1,66.2z M281,69.8c-5.9,0-11.6-0.2-17.3,0.1c-4.7,0.2-7.4,3.1-7.6,7.3c-0.3,4.1,2.3,7.3,6.7,8.4
				c1.2,0.3,2.5,0.4,3.8,0.5c6.3,0.3,11.4-2.6,14-8c0.2-0.5,0.4-1,0.4-1.5C281,74.3,281,72,281,69.8z"/>
			<path class="st6" d="M404.5,66.4c-0.1-2.1,0-4-0.4-5.9c-0.9-5.3-4.4-8.4-9.8-8.7c-6.2-0.3-9.5,0.7-15.9,4.9
				c-0.6-0.9-1.2-1.8-2.1-3c2.3-1.3,4.3-2.7,6.6-3.6c4.3-1.8,8.9-2.3,13.5-1.6c7.1,1,11.6,5.7,11.8,13.2c0.3,9,0.1,18,0.1,27.1
				c-1.2,0-2.4,0-3.8,0c0-2.1,0-4.1,0-6.4c-0.4,0.3-0.6,0.4-0.7,0.6c-2.8,3.9-6.8,5.7-11.4,6.1c-3.3,0.3-6.6,0.1-9.7-1.1
				c-5.1-2.1-7.6-6.1-7.1-11.9c0.4-4.4,3.8-8.2,8.8-9.1c2.6-0.5,5.3-0.6,8-0.7C396.3,66.3,400.3,66.4,404.5,66.4z M404.4,69.8
				c-5.9,0-11.7-0.2-17.4,0.1c-4.5,0.2-7.1,3-7.5,7.2c-0.3,4,2.1,7.3,6.4,8.5c1.3,0.4,2.7,0.5,4.1,0.6c6.3,0.3,11.4-2.6,14-7.9
				c0.2-0.5,0.4-1.1,0.4-1.6C404.4,74.2,404.4,71.9,404.4,69.8z"/>
			<path class="st6" d="M44.3,48.8c3.2-1,5,0.4,6.7,2.8c3.3,4.7,6.9,9.1,10.6,13.7c0.4-0.5,0.7-0.9,1.1-1.3c3.5-4.5,7-8.9,10.4-13.5
				c1.1-1.5,2.2-2.3,4.1-2c0.5,0.1,1,0,1.9,0c-5.2,6.7-10.2,13.1-15.2,19.6C69.2,75,74.5,81.9,80.1,89c-1.5,0-2.8,0.1-4,0
				c-0.5-0.1-1-0.5-1.4-1c-4.1-5.2-8.1-10.5-12.2-15.8c-0.3-0.4-0.6-0.7-0.9-1.1c-4.2,5.4-8.3,10.7-12.3,16
				c-1.1,1.4-2.1,2.2-3.9,1.9c-0.6-0.1-1.2,0-2.1,0c5.4-7.1,10.7-13.9,16-20.8C54.3,61.7,49.3,55.2,44.3,48.8z"/>
			<path class="st8" d="M231.8,88.9c-1.4,0-2.6,0-3.9,0c0-13.4,0-26.8,0-40.3c1.2,0,2.4,0,3.7,0c0,2.6,0,5.1,0,7.7
				c3.5-5.8,8.8-8,15.3-8.1c0,1.4,0,2.6,0,3.7c-1.9,0.2-3.7,0.3-5.4,0.8c-5.3,1.4-9.1,5.9-9.5,11.8c-0.3,5.3-0.2,10.6-0.3,15.9
				C231.8,83.2,231.8,86,231.8,88.9z"/>
		</g>
	</g>
</g>
</svg>
