<?xml version="1.0" encoding="utf-8"?>
<!-- Generator: Adobe Illustrator 22.0.1, SVG Export Plug-In . SVG Version: 6.00 Build 0)  -->
<svg version="1.1" id="Layer_1" xmlns="http://www.w3.org/2000/svg" xmlns:xlink="http://www.w3.org/1999/xlink" x="0px" y="0px"
	 viewBox="0 0 269.3 127.6" style="enable-background:new 0 0 269.3 127.6;" xml:space="preserve">
<style type="text/css">
	.st0{fill:#127CAF;}
	.st1{fill:#373535;}
	.st2{fill:#383636;}
	.st3{fill:#393636;}
	.st4{fill:#3A3838;}
</style>
<g id="WCiLFH.tif">
	<g>
		<g>
			<path class="st0" d="M52,129.5c-2.8-0.7-5.5-1.4-8.3-2.1C18.1,120.9-1.9,97.1-4.1,70.8c-1.5-18.3,3.4-34.6,15.3-48.6
				C23.7,7.7,39.6-0.1,59-0.5C78.4-1,94.8,5.8,108.1,19.8c10.5,11,16.4,24.3,17.5,39.6c1.3,17.3-3.5,32.7-14.4,46.2
				c-10.6,13.1-24.4,20.8-41,23.5c-0.4,0.1-0.8,0.3-1.3,0.5C63.3,129.5,57.7,129.5,52,129.5z M60.9,115.8c0.9,0,1.5,0.1,2.2,0
				c4.5-0.7,8.7-2.3,12.4-4.9c11.3-7.9,18-19.2,22-32.1c3-9.8,3.4-19.7-1.1-29.2c-7.2-15.3-19.2-23.3-36.3-23.3
				c-23.5,0-41.7,21.6-37.8,44.8c3.1,18.5,17.4,31.3,36.5,32.7c1.8,0.1,2.2,0.8,2.2,2.4C60.9,109.4,60.9,112.5,60.9,115.8z"/>
			<path class="st1" d="M-221.5,65c0.5-1.8,1-3.6,1.5-5.3c4-14.1,17-23.4,31.3-22.5c15.5,1,27.1,11.5,29.2,26.5
				c0.4,2.6,0.5,5.3,0.7,8.2c-18.9,0-37.5,0-56.1,0c-0.6,9.3,5.4,18.9,14.4,23.2c9,4.3,24.3,4.5,33.9-6.3c1.2,1.3,2.3,2.6,3.6,4
				c-3.8,4.8-8.8,7.7-14.6,9.4c-15.3,4.5-31.5-1.3-39-14.1c-2-3.4-2.9-7.5-4.3-11.3c-0.2-0.4-0.4-0.8-0.5-1.2
				C-221.5,72-221.5,68.5-221.5,65z M-165.4,66.9c0.1-13.9-11.6-24.5-26.3-24c-15.1,0.5-23.2,13.7-23.1,24
				C-198.3,66.9-181.9,66.9-165.4,66.9z"/>
			<path class="st2" d="M264.5,102.9c-2.2,0-4.2,0-6.3,0c0-21.7,0-43.2,0-65c1.9,0,3.9,0,6,0c0,4.1,0,8.2,0,12.4
				c6-9.4,14.8-13.2,25.4-13c10.9,0.2,19.3,4.5,23.4,15.4c7.2-14,21.9-17.5,34.6-14.4c9.3,2.2,15.8,9.7,17.2,19.5
				c0.3,2.3,0.5,4.6,0.5,7c0,12.7,0,25.3,0,38.2c-2,0-4.1,0-6.4,0c0-0.9,0-1.8,0-2.7c0-12.3,0-24.7-0.1-37c0-2.2-0.4-4.5-1-6.6
				c-2.2-8.1-8.6-13.2-17.1-13.5c-15.7-0.7-25.7,8.8-25.9,24.6c-0.1,10.9,0,21.8,0,32.7c0,0.8,0,1.6,0,2.6c-2.1,0-4.1,0-6.4,0
				c0-0.9,0-1.8,0-2.7c0-12.3,0-24.7-0.1-37c0-2.2-0.4-4.5-1-6.6c-2.2-8.2-8.6-13.2-17-13.6c-15.7-0.7-25.8,8.7-26,24.5
				c-0.1,10.8,0,21.7,0,32.5C264.5,100.9,264.5,101.8,264.5,102.9z"/>
			<path class="st3" d="M-76.5,88.7c0,13.2,0,25.8,0,38.6c-2.1,0-4.1,0-6.2,0c0-29.8,0-59.5,0-89.4c1.9,0,3.8,0,6,0
				c0,4.6,0,9.3,0,14.6c0.6-0.8,0.9-1.1,1-1.4c7.5-11.4,18.3-15.4,31.3-13.3c12.9,2.1,21.4,9.8,25.2,22.3c2.4,8,2.1,16.2-1.1,24
				c-4.8,11.6-13.7,18.1-26,19.3c-12.3,1.2-22.4-2.8-29.4-13.5C-75.7,89.6-75.9,89.4-76.5,88.7z M-76.5,70.2
				c0,18.7,15,30.9,32.9,26.8c10.7-2.5,18.2-11.3,19.4-23.8c2-20.8-15-34.4-34-29.2C-69.3,47.1-76.5,57.6-76.5,70.2z"/>
			<path class="st1" d="M229.7,66.2c-0.2-3.1-0.1-6.2-0.6-9.2c-1.4-8.6-7.1-13.5-15.9-14c-10.1-0.5-15.2,1.1-25.6,8
				c-1-1.4-2-2.8-3.1-4.4c4.8-4.5,10.6-7,16.8-8.3c6.7-1.5,13.4-1.6,20,0.5c8.9,2.8,14.2,9.8,14.4,20.3c0.4,14.6,0.1,29.1,0.1,43.9
				c-2,0-3.9,0-6.1,0c0-3.3,0-6.6,0-10.4c-0.6,0.5-1,0.7-1.2,1c-4.5,6.4-11,9.2-18.5,9.9c-5.3,0.5-10.6,0.2-15.7-1.9
				c-8.3-3.4-12.2-9.9-11.5-19.2c0.6-7.1,6.1-13.2,14.2-14.7c4.2-0.8,8.6-0.9,12.9-1.1c6.2-0.2,12.5-0.1,18.7-0.1
				C229,66.5,229.1,66.4,229.7,66.2z M229.5,72c-9.5,0-18.8-0.3-28,0.1c-7.6,0.4-11.9,5-12.4,11.9c-0.4,6.6,3.7,11.9,10.8,13.5
				c2,0.5,4.1,0.7,6.2,0.8c10.3,0.5,18.5-4.2,22.6-12.9c0.3-0.7,0.7-1.6,0.7-2.4C229.6,79.3,229.5,75.6,229.5,72z"/>
			<path class="st1" d="M429.2,66.5c-0.2-3.4-0.1-6.5-0.6-9.5c-1.4-8.6-7.1-13.6-15.9-14c-10.1-0.5-15.4,1.1-25.6,8
				c-1-1.4-2-2.8-3.4-4.9c3.7-2,7-4.3,10.7-5.9c7-2.9,14.3-3.7,21.8-2.6c11.5,1.6,18.7,9.2,19,21.4c0.4,14.6,0.1,29.1,0.1,43.9
				c-2,0-3.9,0-6.1,0c0-3.3,0-6.6,0-10.4c-0.6,0.5-1,0.7-1.2,0.9c-4.5,6.4-11,9.2-18.5,9.9c-5.3,0.5-10.6,0.2-15.7-1.9
				c-8.3-3.4-12.2-9.9-11.5-19.2c0.6-7.1,6.1-13.2,14.2-14.7c4.2-0.8,8.6-0.9,12.9-1.1C416,66.4,422.4,66.5,429.2,66.5z M429,72
				c-9.6,0-18.9-0.4-28.2,0.1c-7.3,0.4-11.6,4.9-12.1,11.6c-0.5,6.5,3.3,11.8,10.3,13.7c2.2,0.6,4.4,0.8,6.7,0.9
				c10.3,0.5,18.5-4.1,22.6-12.8c0.4-0.8,0.7-1.7,0.7-2.6C429.1,79.2,429,75.5,429,72z"/>
			<path class="st1" d="M-153.1,38.1c5.2-1.7,8.1,0.6,10.9,4.5c5.3,7.5,11.2,14.7,17.1,22.2c0.6-0.8,1.2-1.5,1.7-2.1
				c5.6-7.2,11.3-14.4,16.8-21.8c1.8-2.4,3.6-3.7,6.6-3.2c0.8,0.1,1.6,0,3.1,0c-8.4,10.8-16.4,21.2-24.5,31.7
				c8.7,11.1,17.3,22.2,26.3,33.7c-2.5,0-4.5,0.2-6.5-0.1c-0.8-0.1-1.7-0.9-2.2-1.6c-6.6-8.5-13.1-17-19.7-25.5
				c-0.4-0.6-0.9-1.1-1.5-1.8c-6.7,8.7-13.4,17.2-19.8,25.9c-1.7,2.3-3.5,3.6-6.4,3.1c-0.9-0.2-1.9,0-3.4,0
				c8.8-11.4,17.3-22.5,25.9-33.7C-136.9,58.9-145,48.5-153.1,38.1z"/>
			<path class="st4" d="M150,103c-2.3,0-4.2,0-6.2,0c0-21.7,0-43.3,0-65.1c1.9,0,3.9,0,6,0c0,4.2,0,8.3,0,12.4
				c5.6-9.5,14.2-12.9,24.8-13.1c0,2.2,0,4.1,0,5.9c-3,0.4-6,0.5-8.7,1.2c-8.6,2.3-14.7,9.6-15.3,19.1c-0.6,8.5-0.4,17.1-0.5,25.7
				C150,93.7,150,98.2,150,103z"/>
		</g>
	</g>
</g>
<g>
</g>
<g>
</g>
<g>
</g>
<g>
</g>
<g>
</g>
<g>
</g>
</svg>
